<svg xmlns="http://www.w3.org/2000/svg"  viewBox="0 0 24 24" width="24px" height="24px"><path d="M 12 2 C 6.4860328 2 2 6.4860368 2 12 C 2 17.513963 6.4860328 22 12 22 C 17.513967 22 22 17.513963 22 12 C 22 6.4860368 17.513967 2 12 2 z M 12 3.5 C 16.703308 3.5 20.5 7.2966955 20.5 12 C 20.5 16.703304 16.703308 20.5 12 20.5 C 7.2966924 20.5 3.5 16.703304 3.5 12 C 3.5 7.2966955 7.2966924 3.5 12 3.5 z M 11.25 7 L 11.25 7.75 L 11.25 11.25 L 7.75 11.25 L 7 11.25 L 7 12.75 L 7.75 12.75 L 11.25 12.75 L 11.25 16.25 L 11.25 17 L 12.75 17 L 12.75 16.25 L 12.75 12.75 L 16.25 12.75 L 17 12.75 L 17 11.25 L 16.25 11.25 L 12.75 11.25 L 12.75 7.75 L 12.75 7 L 11.25 7 z"/></svg>